<svg viewBox="0 0 1000 640" width="100%" height="auto" preserveAspectRatio="xMidYMid meet" role="img" aria-label="Decade-level invocation rate of the act-of-God defense in the New York Court of Appeals, 1847 to 2017"><defs><style>
  .annotation { font-family: "JetBrains Mono", "Menlo", monospace; font-size: 10.5px; fill: #4d4641; letter-spacing: 0.04em; }
  .annotation-body { font-family: "Instrument Serif", "Georgia", serif; font-style: italic; font-size: 13px; fill: #1b1815; }
  .axis-label { font-family: "JetBrains Mono", "Menlo", monospace; font-size: 10px; letter-spacing: 0.12em; text-transform: uppercase; fill: #4d4641; }
  .decade-label { font-family: "JetBrains Mono", "Menlo", monospace; font-size: 10.5px; fill: #1b1815; }
  .section-label { font-family: "JetBrains Mono", "Menlo", monospace; font-size: 10px; letter-spacing: 0.14em; text-transform: uppercase; fill: #4d4641; }
  .rail { stroke: #8a7f6e; stroke-width: 0.5; opacity: 0.3; }
  .spine { stroke: #1b1815; stroke-width: 0.6; opacity: 0.4; }
  .tick-mark-active { stroke: #8b2a1f; stroke-width: 1.2; opacity: 0.92; }
  .tick-mark-boilerplate { stroke: #94793c; stroke-width: 1.2; opacity: 0.85; }
  .tick-mark-quotation { stroke: #b8a88a; stroke-width: 1.2; opacity: 0.9; }
  .rate-line-active { fill: none; stroke: #8b2a1f; stroke-width: 1.7; }
  .rate-line-boiler { fill: none; stroke: #94793c; stroke-width: 1.5; stroke-dasharray: 2.5 2.5; opacity: 0.75; }
  .zero-marker { fill: none; stroke: #8b2a1f; stroke-width: 0.8; opacity: 0.6; }
  text { dominant-baseline: middle; }
</style></defs><g transform="translate(72,48)"><g><text class="section-label" x="0" y="-18">case-level mentions, stacked within decade</text><line class="spine" x1="0" x2="788" y1="147.4" y2="147.4"></line><line class="tick-mark-active" x1="12.176470588235293" x2="34.17647058823529" y1="143.20000000000002" y2="143.20000000000002"></line><line class="tick-mark-active" x1="12.176470588235293" x2="34.17647058823529" y1="139" y2="139"></line><line class="tick-mark-active" x1="12.176470588235293" x2="34.17647058823529" y1="134.8" y2="134.8"></line><line class="tick-mark-quotation" x1="12.176470588235293" x2="34.17647058823529" y1="130.6" y2="130.6"></line><line class="tick-mark-quotation" x1="12.176470588235293" x2="34.17647058823529" y1="126.4" y2="126.4"></line><line class="tick-mark-quotation" x1="12.176470588235293" x2="34.17647058823529" y1="122.2" y2="122.2"></line><line class="tick-mark-quotation" x1="12.176470588235293" x2="34.17647058823529" y1="118" y2="118"></line><line class="tick-mark-active" x1="58.529411764705884" x2="80.52941176470588" y1="143.20000000000002" y2="143.20000000000002"></line><line class="tick-mark-active" x1="58.529411764705884" x2="80.52941176470588" y1="139" y2="139"></line><line class="tick-mark-active" x1="58.529411764705884" x2="80.52941176470588" y1="134.8" y2="134.8"></line><line class="tick-mark-active" x1="58.529411764705884" x2="80.52941176470588" y1="130.6" y2="130.6"></line><line class="tick-mark-active" x1="58.529411764705884" x2="80.52941176470588" y1="126.4" y2="126.4"></line><line class="tick-mark-active" x1="58.529411764705884" x2="80.52941176470588" y1="122.2" y2="122.2"></line><line class="tick-mark-active" x1="58.529411764705884" x2="80.52941176470588" y1="118" y2="118"></line><line class="tick-mark-active" x1="58.529411764705884" x2="80.52941176470588" y1="113.80000000000001" y2="113.80000000000001"></line><line class="tick-mark-quotation" x1="58.529411764705884" x2="80.52941176470588" y1="109.6" y2="109.6"></line><line class="tick-mark-quotation" x1="58.529411764705884" x2="80.52941176470588" y1="105.4" y2="105.4"></line><line class="tick-mark-quotation" x1="58.529411764705884" x2="80.52941176470588" y1="101.2" y2="101.2"></line><line class="tick-mark-quotation" x1="58.529411764705884" x2="80.52941176470588" y1="97" y2="97"></line><line class="tick-mark-quotation" x1="58.529411764705884" x2="80.52941176470588" y1="92.80000000000001" y2="92.80000000000001"></line><line class="tick-mark-quotation" x1="58.529411764705884" x2="80.52941176470588" y1="88.6" y2="88.6"></line><line class="tick-mark-boilerplate" x1="58.529411764705884" x2="80.52941176470588" y1="151.6" y2="151.6"></line><line class="tick-mark-boilerplate" x1="58.529411764705884" x2="80.52941176470588" y1="155.8" y2="155.8"></line><line class="tick-mark-boilerplate" x1="58.529411764705884" x2="80.52941176470588" y1="160" y2="160"></line><line class="tick-mark-boilerplate" x1="58.529411764705884" x2="80.52941176470588" y1="164.20000000000002" y2="164.20000000000002"></line><line class="tick-mark-active" x1="104.88235294117646" x2="126.88235294117646" y1="143.20000000000002" y2="143.20000000000002"></line><line class="tick-mark-active" x1="104.88235294117646" x2="126.88235294117646" y1="139" y2="139"></line><line class="tick-mark-active" x1="104.88235294117646" x2="126.88235294117646" y1="134.8" y2="134.8"></line><line class="tick-mark-active" x1="104.88235294117646" x2="126.88235294117646" y1="130.6" y2="130.6"></line><line class="tick-mark-active" x1="104.88235294117646" x2="126.88235294117646" y1="126.4" y2="126.4"></line><line class="tick-mark-active" x1="104.88235294117646" x2="126.88235294117646" y1="122.2" y2="122.2"></line><line class="tick-mark-active" x1="104.88235294117646" x2="126.88235294117646" y1="118" y2="118"></line><line class="tick-mark-active" x1="104.88235294117646" x2="126.88235294117646" y1="113.80000000000001" y2="113.80000000000001"></line><line class="tick-mark-active" x1="104.88235294117646" x2="126.88235294117646" y1="109.6" y2="109.6"></line><line class="tick-mark-active" x1="104.88235294117646" x2="126.88235294117646" y1="105.4" y2="105.4"></line><line class="tick-mark-active" x1="104.88235294117646" x2="126.88235294117646" y1="101.2" y2="101.2"></line><line class="tick-mark-quotation" x1="104.88235294117646" x2="126.88235294117646" y1="97" y2="97"></line><line class="tick-mark-quotation" x1="104.88235294117646" x2="126.88235294117646" y1="92.80000000000001" y2="92.80000000000001"></line><line class="tick-mark-quotation" x1="104.88235294117646" x2="126.88235294117646" y1="88.6" y2="88.6"></line><line class="tick-mark-quotation" x1="104.88235294117646" x2="126.88235294117646" y1="84.4" y2="84.4"></line><line class="tick-mark-quotation" x1="104.88235294117646" x2="126.88235294117646" y1="80.2" y2="80.2"></line><line class="tick-mark-quotation" x1="104.88235294117646" x2="126.88235294117646" y1="76" y2="76"></line><line class="tick-mark-quotation" x1="104.88235294117646" x2="126.88235294117646" y1="71.8" y2="71.8"></line><line class="tick-mark-quotation" x1="104.88235294117646" x2="126.88235294117646" y1="67.60000000000001" y2="67.60000000000001"></line><line class="tick-mark-quotation" x1="104.88235294117646" x2="126.88235294117646" y1="63.400000000000006" y2="63.400000000000006"></line><line class="tick-mark-quotation" x1="104.88235294117646" x2="126.88235294117646" y1="59.2" y2="59.2"></line><line class="tick-mark-quotation" x1="104.88235294117646" x2="126.88235294117646" y1="55" y2="55"></line><line class="tick-mark-boilerplate" x1="104.88235294117646" x2="126.88235294117646" y1="151.6" y2="151.6"></line><line class="tick-mark-boilerplate" x1="104.88235294117646" x2="126.88235294117646" y1="155.8" y2="155.8"></line><line class="tick-mark-active" x1="151.23529411764707" x2="173.23529411764707" y1="143.20000000000002" y2="143.20000000000002"></line><line class="tick-mark-active" x1="151.23529411764707" x2="173.23529411764707" y1="139" y2="139"></line><line class="tick-mark-active" x1="151.23529411764707" x2="173.23529411764707" y1="134.8" y2="134.8"></line><line class="tick-mark-quotation" x1="151.23529411764707" x2="173.23529411764707" y1="130.6" y2="130.6"></line><line class="tick-mark-quotation" x1="151.23529411764707" x2="173.23529411764707" y1="126.4" y2="126.4"></line><line class="tick-mark-quotation" x1="151.23529411764707" x2="173.23529411764707" y1="122.2" y2="122.2"></line><line class="tick-mark-quotation" x1="151.23529411764707" x2="173.23529411764707" y1="118" y2="118"></line><line class="tick-mark-boilerplate" x1="151.23529411764707" x2="173.23529411764707" y1="151.6" y2="151.6"></line><line class="tick-mark-boilerplate" x1="151.23529411764707" x2="173.23529411764707" y1="155.8" y2="155.8"></line><line class="tick-mark-active" x1="197.58823529411765" x2="219.58823529411765" y1="143.20000000000002" y2="143.20000000000002"></line><line class="tick-mark-active" x1="197.58823529411765" x2="219.58823529411765" y1="139" y2="139"></line><line class="tick-mark-active" x1="197.58823529411765" x2="219.58823529411765" y1="134.8" y2="134.8"></line><line class="tick-mark-active" x1="197.58823529411765" x2="219.58823529411765" y1="130.6" y2="130.6"></line><line class="tick-mark-quotation" x1="197.58823529411765" x2="219.58823529411765" y1="126.4" y2="126.4"></line><line class="tick-mark-quotation" x1="197.58823529411765" x2="219.58823529411765" y1="122.2" y2="122.2"></line><line class="tick-mark-quotation" x1="197.58823529411765" x2="219.58823529411765" y1="118" y2="118"></line><line class="tick-mark-quotation" x1="197.58823529411765" x2="219.58823529411765" y1="113.80000000000001" y2="113.80000000000001"></line><line class="tick-mark-boilerplate" x1="197.58823529411765" x2="219.58823529411765" y1="151.6" y2="151.6"></line><line class="tick-mark-boilerplate" x1="197.58823529411765" x2="219.58823529411765" y1="155.8" y2="155.8"></line><line class="tick-mark-active" x1="243.94117647058823" x2="265.94117647058823" y1="143.20000000000002" y2="143.20000000000002"></line><line class="tick-mark-quotation" x1="243.94117647058823" x2="265.94117647058823" y1="139" y2="139"></line><line class="tick-mark-boilerplate" x1="243.94117647058823" x2="265.94117647058823" y1="151.6" y2="151.6"></line><line class="tick-mark-boilerplate" x1="243.94117647058823" x2="265.94117647058823" y1="155.8" y2="155.8"></line><line class="tick-mark-boilerplate" x1="243.94117647058823" x2="265.94117647058823" y1="160" y2="160"></line><line class="tick-mark-active" x1="290.29411764705884" x2="312.29411764705884" y1="143.20000000000002" y2="143.20000000000002"></line><line class="tick-mark-active" x1="290.29411764705884" x2="312.29411764705884" y1="139" y2="139"></line><line class="tick-mark-boilerplate" x1="290.29411764705884" x2="312.29411764705884" y1="151.6" y2="151.6"></line><line class="tick-mark-boilerplate" x1="290.29411764705884" x2="312.29411764705884" y1="155.8" y2="155.8"></line><line class="tick-mark-boilerplate" x1="336.6470588235294" x2="358.6470588235294" y1="151.6" y2="151.6"></line><line class="tick-mark-quotation" x1="383" x2="405" y1="143.20000000000002" y2="143.20000000000002"></line><line class="tick-mark-quotation" x1="383" x2="405" y1="139" y2="139"></line><line class="tick-mark-boilerplate" x1="383" x2="405" y1="151.6" y2="151.6"></line><line class="tick-mark-boilerplate" x1="429.3529411764706" x2="451.3529411764706" y1="151.6" y2="151.6"></line><circle class="zero-marker" cx="486.70588235294116" cy="147.4" r="2.4"></circle><line class="tick-mark-quotation" x1="522.0588235294118" x2="544.0588235294118" y1="143.20000000000002" y2="143.20000000000002"></line><line class="tick-mark-active" x1="568.4117647058823" x2="590.4117647058823" y1="143.20000000000002" y2="143.20000000000002"></line><line class="tick-mark-quotation" x1="568.4117647058823" x2="590.4117647058823" y1="139" y2="139"></line><line class="tick-mark-quotation" x1="568.4117647058823" x2="590.4117647058823" y1="134.8" y2="134.8"></line><line class="tick-mark-boilerplate" x1="568.4117647058823" x2="590.4117647058823" y1="151.6" y2="151.6"></line><line class="tick-mark-quotation" x1="614.764705882353" x2="636.764705882353" y1="143.20000000000002" y2="143.20000000000002"></line><line class="tick-mark-boilerplate" x1="614.764705882353" x2="636.764705882353" y1="151.6" y2="151.6"></line><circle class="zero-marker" cx="672.1176470588235" cy="147.4" r="2.4"></circle><circle class="zero-marker" cx="718.470588235294" cy="147.4" r="2.4"></circle><circle class="zero-marker" cx="764.8235294117648" cy="147.4" r="2.4"></circle><text class="decade-label" x="69.52941176470588" y="264" text-anchor="middle">1860s</text><text class="decade-label" x="162.23529411764707" y="264" text-anchor="middle">1880s</text><text class="decade-label" x="254.94117647058823" y="264" text-anchor="middle">1900s</text><text class="decade-label" x="347.6470588235294" y="264" text-anchor="middle">1920s</text><text class="decade-label" x="440.3529411764706" y="264" text-anchor="middle">1940s</text><text class="decade-label" x="533.0588235294118" y="264" text-anchor="middle">1960s</text><text class="decade-label" x="625.764705882353" y="264" text-anchor="middle">1980s</text><text class="decade-label" x="718.470588235294" y="264" text-anchor="middle">2000s</text><text class="axis-label" transform="translate(-52, 109.4) rotate(-90)" text-anchor="middle">↑ adjudication / quotation</text><text class="axis-label" transform="translate(-52, 185.4) rotate(-90)" text-anchor="middle">↓ boilerplate</text><path d="M 69.52941176470588 78.4 Q 109.52941176470588 50.400000000000006 179.52941176470588 56.400000000000006" fill="none" stroke="#8b2a1f" stroke-width="0.6"></path><text class="annotation-body" x="185.52941176470588" y="52.400000000000006" text-anchor="start">peak: 8 live adjudications, 1860s</text><text class="annotation" x="185.52941176470588" y="65.4" text-anchor="start">contract, carriage, innkeeper cases</text><line x1="324.47058823529414" x2="324.47058823529414" y1="0" y2="268" stroke="#1b1815" stroke-width="0.4" stroke-dasharray="2 3" opacity="0.55"></line><text class="annotation" x="328.47058823529414" y="8" text-anchor="start">1916 — last decade of Appellate Division digitization</text></g><g transform="translate(0, 310.88)"><text class="section-label" x="0" y="-14">invocation rate per 10,000 court-of-appeals opinions</text><line class="rail" x1="0" x2="788" y1="150.28844444444442" y2="150.28844444444442"></line><text class="axis-label" x="-10" y="150.28844444444442" text-anchor="end">20</text><line class="rail" x1="0" x2="788" y1="75.45688888888888" y2="75.45688888888888"></line><text class="axis-label" x="-10" y="75.45688888888888" text-anchor="end">40</text><line class="rail" x1="0" x2="788" y1="0.6253333333333311" y2="0.6253333333333311"></line><text class="axis-label" x="-10" y="0.6253333333333311" text-anchor="end">60</text><line class="spine" x1="0" x2="788" y1="225.12" y2="225.12"></line><text class="axis-label" x="-10" y="225.12" text-anchor="end">0</text><text class="axis-label" transform="translate(-52, 112.56) rotate(-90)" text-anchor="middle">rate per 10k opinions</text><path class="rate-line-boiler" d="M23.176,225.12C38.627,173.009,54.078,120.898,69.529,120.898C84.98,120.898,100.431,208.851,115.882,209.917C131.333,210.982,146.784,210.817,162.235,211.514C177.686,212.212,193.137,214.101,208.588,214.101C224.039,214.101,239.49,209.133,254.941,209.133C270.392,209.133,285.843,213.575,301.294,215.145C316.745,216.715,332.196,217.712,347.647,218.555C363.098,219.397,378.549,220.199,394,220.199C409.451,220.199,424.902,219.271,440.353,219.271C455.804,219.271,471.255,225.12,486.706,225.12C502.157,225.12,517.608,225.12,533.059,225.12C548.51,225.12,563.961,220.363,579.412,220.277C594.863,220.19,610.314,220.146,625.765,220.146C641.216,220.146,656.667,225.12,672.118,225.12C687.569,225.12,703.02,225.12,718.471,225.12C733.922,225.12,749.373,225.12,764.824,225.12"></path><path class="rate-line-active" d="M23.176,129.914C38.627,73.295,54.078,16.676,69.529,16.676C84.98,16.676,100.431,110.162,115.882,141.501C131.333,172.84,146.784,204.711,162.235,204.711C177.686,204.711,193.137,203.082,208.588,203.082C224.039,203.082,239.49,219.791,254.941,219.791C270.392,219.791,285.843,215.145,301.294,215.145C316.745,215.145,332.196,225.12,347.647,225.12C363.098,225.12,378.549,225.12,394,225.12C409.451,225.12,424.902,225.12,440.353,225.12C455.804,225.12,471.255,225.12,486.706,225.12C502.157,225.12,517.608,225.12,533.059,225.12C548.51,225.12,563.961,220.277,579.412,220.277C594.863,220.277,610.314,225.12,625.765,225.12C641.216,225.12,656.667,225.12,672.118,225.12C687.569,225.12,703.02,225.12,718.471,225.12C733.922,225.12,749.373,225.12,764.824,225.12"></path><circle fill="#8b2a1f" cx="23.176470588235293" cy="129.9144585807181" r="2.4"></circle><circle fill="#94793c" cx="23.176470588235293" cy="225.12" r="2"></circle><circle fill="#8b2a1f" cx="69.52941176470588" cy="16.67555555555558" r="2.4"></circle><circle fill="#94793c" cx="69.52941176470588" cy="120.89777777777779" r="2"></circle><circle fill="#8b2a1f" cx="115.88235294117646" cy="141.50082983430403" r="2.4"></circle><circle fill="#94793c" cx="115.88235294117646" cy="209.916514515328" r="2"></circle><circle fill="#8b2a1f" cx="162.23529411764707" cy="204.71139393939396" r="2.4"></circle><circle fill="#94793c" cx="162.23529411764707" cy="211.51426262626265" r="2"></circle><circle fill="#8b2a1f" cx="208.58823529411765" cy="203.08155041803695" r="2.4"></circle><circle fill="#94793c" cx="208.58823529411765" cy="214.10077520901848" r="2"></circle><circle fill="#8b2a1f" cx="254.94117647058823" cy="219.79087626010858" r="2.4"></circle><circle fill="#94793c" cx="254.94117647058823" cy="209.13262878032572" r="2"></circle><circle fill="#8b2a1f" cx="301.29411764705884" cy="215.14511922746527" r="2.4"></circle><circle fill="#94793c" cx="301.29411764705884" cy="215.14511922746527" r="2"></circle><circle fill="#8b2a1f" cx="347.6470588235294" cy="225.12" r="2.4"></circle><circle fill="#94793c" cx="347.6470588235294" cy="218.55467664892478" r="2"></circle><circle fill="#8b2a1f" cx="394" cy="225.12" r="2.4"></circle><circle fill="#94793c" cx="394" cy="220.19881391848247" r="2"></circle><circle fill="#8b2a1f" cx="440.3529411764706" cy="225.12" r="2.4"></circle><circle fill="#94793c" cx="440.3529411764706" cy="219.27104302363955" r="2"></circle><circle fill="#8b2a1f" cx="486.70588235294116" cy="225.12" r="2.4"></circle><circle fill="#94793c" cx="486.70588235294116" cy="225.12" r="2"></circle><circle fill="#8b2a1f" cx="533.0588235294118" cy="225.12" r="2.4"></circle><circle fill="#94793c" cx="533.0588235294118" cy="225.12" r="2"></circle><circle fill="#8b2a1f" cx="579.4117647058823" cy="220.27653362099963" r="2.4"></circle><circle fill="#94793c" cx="579.4117647058823" cy="220.27653362099963" r="2"></circle><circle fill="#8b2a1f" cx="625.764705882353" cy="225.12" r="2.4"></circle><circle fill="#94793c" cx="625.764705882353" cy="220.14648175225605" r="2"></circle><circle fill="#8b2a1f" cx="672.1176470588235" cy="225.12" r="2.4"></circle><circle fill="#94793c" cx="672.1176470588235" cy="225.12" r="2"></circle><circle fill="#8b2a1f" cx="718.470588235294" cy="225.12" r="2.4"></circle><circle fill="#94793c" cx="718.470588235294" cy="225.12" r="2"></circle><circle fill="#8b2a1f" cx="764.8235294117648" cy="225.12" r="2.4"></circle><circle fill="#94793c" cx="764.8235294117648" cy="225.12" r="2"></circle><text class="decade-label" x="69.52941176470588" y="243.12" text-anchor="middle">1860s</text><text class="decade-label" x="162.23529411764707" y="243.12" text-anchor="middle">1880s</text><text class="decade-label" x="254.94117647058823" y="243.12" text-anchor="middle">1900s</text><text class="decade-label" x="347.6470588235294" y="243.12" text-anchor="middle">1920s</text><text class="decade-label" x="440.3529411764706" y="243.12" text-anchor="middle">1940s</text><text class="decade-label" x="533.0588235294118" y="243.12" text-anchor="middle">1960s</text><text class="decade-label" x="625.764705882353" y="243.12" text-anchor="middle">1980s</text><text class="decade-label" x="718.470588235294" y="243.12" text-anchor="middle">2000s</text><text class="decade-label" x="23.176470588235293" y="243.12" text-anchor="middle">1850s</text><text class="decade-label" x="764.8235294117648" y="243.12" text-anchor="middle">2010s</text><line x1="324.47058823529414" x2="324.47058823529414" y1="0" y2="225.12" stroke="#1b1815" stroke-width="0.4" stroke-dasharray="2 3" opacity="0.55"></line><g><line x1="764.8235294117648" x2="782.8235294117648" y1="225.12" y2="123.81600000000002" stroke="#8b2a1f" stroke-width="0.6"></line><text class="annotation-body" x="788.8235294117648" y="115.81600000000002" text-anchor="start">2000s onward:</text><text class="annotation-body" x="788.8235294117648" y="131.81600000000003" text-anchor="start">zero invocations</text><text class="annotation" x="788.8235294117648" y="147.81600000000003" text-anchor="start">in 10,079 opinions</text></g><text class="annotation" x="77.52941176470588" y="12.67555555555558" text-anchor="start">56 / 10k</text><text class="annotation" x="69.52941176470588" y="112.89777777777779" text-anchor="middle">boilerplate</text></g></g></svg>